<svg xmlns="http://www.w3.org/2000/svg" viewBox="0 0 400 520" width="400" height="520" role="img" aria-label="Scratch card: Spooning">
  <rect x="12" y="12" width="376" height="496" rx="28" fill="#FFF8F0" stroke="#F0D5DC" stroke-width="2"/>
  <text x="200" y="58" text-anchor="middle" font-family="Lato, Segoe UI, Arial, sans-serif" font-size="11" font-weight="700" letter-spacing="2.4" fill="#9E7B84">FROM EVA · POSITION</text>
  <rect x="36" y="78" width="328" height="250" rx="22" fill="#FFFFFF" stroke="#F0D5DC" stroke-width="1.5"/>
  <g>
    <rect x="62" y="152" width="92" height="58" rx="20" fill="#FCE4EC"/>
    <path d="M70 284 Q200 298 330 284" fill="none" stroke="#F4A7B9" stroke-width="2" stroke-linecap="round" opacity="0.8"/>
    <g fill="none" stroke="#E88FA8" stroke-width="17" stroke-linecap="round" stroke-linejoin="round">
      <path d="M140 184 Q188 204 236 196"/>
      <path d="M236 196 L286 156 L332 186"/>
      <path d="M152 180 Q176 146 210 150"/>
    </g>
    <circle cx="118" cy="172" r="19" fill="#E88FA8"/>
    <g fill="none" stroke="#880E4F" stroke-width="17" stroke-linecap="round" stroke-linejoin="round">
      <path d="M128 230 Q182 250 236 240"/>
      <path d="M236 240 L290 200 L340 230"/>
      <path d="M146 226 Q186 210 222 174"/>
    </g>
    <circle cx="106" cy="216" r="19" fill="#880E4F"/>
  </g>
  <text x="200" y="378" text-anchor="middle" font-family="'Cormorant Garamond', Georgia, serif" font-size="36" font-weight="600" fill="#880E4F">Spooning</text>
  <text x="200" y="412" text-anchor="middle" font-family="Lato, Segoe UI, Arial, sans-serif" font-size="15" fill="#6B4652">Both on one side, one curled behind the other.</text>
  <text x="200" y="434" text-anchor="middle" font-family="Lato, Segoe UI, Arial, sans-serif" font-size="15" fill="#6B4652">Slow, close, easy to stay in.</text>
  <rect x="110" y="456" width="180" height="40" rx="20" fill="#880E4F"/>
  <text x="200" y="481" text-anchor="middle" font-family="Lato, Segoe UI, Arial, sans-serif" font-size="14" font-weight="700" fill="#FFF8F0">Redeem</text>
</svg>
